<svg width="512" height="512" viewBox="0 0 512 512" fill="none" xmlns="http://www.w3.org/2000/svg">
<path fill-rule="evenodd" clip-rule="evenodd" d="M268.007 122.168C305.291 77.735 371.772 71.9323 416.19 109.203C460.608 146.474 466.438 212.953 429.154 257.386C393.943 299.349 332.69 306.857 288.574 276.167L134.639 459.618C131.247 463.661 125.212 464.189 121.168 460.797C117.125 457.404 116.597 451.369 119.99 447.326L273.924 263.874C236.039 225.758 232.796 164.131 268.007 122.168ZM311.957 159.045C328.896 138.858 359.11 136.201 379.312 153.153C383.356 156.545 389.391 156.017 392.783 151.974C396.176 147.931 395.648 141.896 391.605 138.503C363.331 114.778 321.031 118.479 297.307 146.753C293.914 150.796 294.442 156.831 298.485 160.224C302.529 163.617 308.564 163.089 311.957 159.045Z" fill="#00A8FF"/>
<path fill-rule="evenodd" clip-rule="evenodd" d="M265.549 254.362C235.766 216.086 235.594 160.796 268.007 122.168C305.291 77.735 371.772 71.9322 416.19 109.203C460.608 146.474 466.438 212.953 429.154 257.386C396.741 296.014 342.261 305.446 299.395 282.762C295.694 280.804 292.08 278.606 288.573 276.167L134.639 459.618C131.246 463.662 125.211 464.189 121.168 460.797C117.125 457.404 116.597 451.369 119.99 447.326L273.924 263.874C270.913 260.845 268.121 257.667 265.549 254.362ZM233.13 263.246C201.97 214.227 204.458 148.659 243.759 101.821C292.282 43.9941 378.729 36.4499 436.536 84.9555C494.343 133.461 501.925 219.905 453.402 277.732C414.101 324.57 349.961 338.406 296.275 316.232L158.887 479.965C144.257 497.4 118.257 499.674 100.822 485.045C83.3868 470.415 81.1119 444.414 95.7417 426.979L233.13 263.246ZM313.601 132.704C307.596 136.378 302.076 141.069 297.307 146.753C293.914 150.796 294.442 156.831 298.485 160.224C302.529 163.617 308.564 163.089 311.956 159.045C316.01 154.214 320.824 150.387 326.079 147.593C337.531 141.503 351.077 140.315 363.415 144.326C369.075 146.165 374.48 149.098 379.312 153.153C383.355 156.545 389.391 156.017 392.783 151.974C396.176 147.931 395.648 141.896 391.605 138.503C385.921 133.734 379.671 130.073 373.118 127.497C353.628 119.835 331.465 121.774 313.601 132.704Z" fill="white"/>
</svg>
